<mxfile host="app.diagrams.net" modified="2023-11-02T08:12:08.821Z" agent="Mozilla/5.0 (Windows NT 10.0; Win64; x64) AppleWebKit/537.36 (KHTML, like Gecko) Chrome/118.0.0.0 Safari/537.36" version="22.0.8" etag="Je_JCrCOq5NbRKs-2WB8" type="github">
  <diagram name="Page-1" id="7i4ZpxsA_iKZYNicJaGS">
    <mxGraphModel>
      <root>
        <mxCell id="0" />
        <mxCell id="1" parent="0" />
      </root>
    </mxGraphModel>
  </diagram>
</mxfile>
